<?xml version="1.0" standalone="no"?>
<!DOCTYPE svg PUBLIC "-//W3C//DTD SVG 20010904//EN"
 "http://www.w3.org/TR/2001/REC-SVG-20010904/DTD/svg10.dtd">
<svg version="1.0" xmlns="http://www.w3.org/2000/svg"
 width="500.000000pt" height="500.000000pt" viewBox="0 0 500.000000 500.000000"
 preserveAspectRatio="xMidYMid meet">
<metadata>
Created by potrace 1.11, written by Peter Selinger 2001-2013
</metadata>
<g transform="translate(0.000000,500.000000) scale(0.100000,-0.100000)"
fill="#000000" stroke="none">
<path d="M2230 4789 c-465 -51 -899 -235 -1234 -523 -363 -311 -616 -712 -731
-1161 -51 -200 -68 -333 -69 -545 -1 -195 4 -274 28 -405 126 -708 575 -1310
1213 -1629 254 -128 508 -204 773 -233 95 -10 382 -10 480 0 353 37 731 177
1038 386 171 115 387 321 513 486 229 299 385 670 446 1055 24 156 24 478 -1
640 -111 733 -560 1359 -1211 1689 -266 135 -506 207 -810 241 -86 9 -347 9
-435 -1z m360 -85 c41 -3 77 -9 78 -15 2 -5 14 -9 27 -9 26 0 26 -1 7 -75 -5
-22 -13 -53 -16 -69 l-7 -28 -77 5 c-42 4 -121 6 -175 7 -86 0 -97 2 -84 15 8
8 25 35 37 61 28 57 17 68 -49 46 -56 -18 -53 -16 -46 -35 7 -16 21 -17 43 -4
16 10 15 -13 -1 -34 -13 -18 -50 -39 -67 -39 -16 0 -29 43 -18 58 6 6 8 12 4
12 -12 0 22 55 48 77 20 17 26 19 26 8 0 -22 37 -18 43 4 5 22 40 30 107 25
25 -2 79 -7 120 -10z m-348 -31 c-28 -40 -36 -71 -34 -125 2 -44 1 -48 -20
-48 -13 0 -40 -3 -60 -6 -35 -6 -38 -5 -38 18 0 16 12 34 35 52 38 31 65 77
65 113 0 20 5 23 36 23 l35 0 -19 -27z m-82 -6 c-1 -17 -20 -39 -57 -65 l-31
-22 -7 30 c-4 16 -3 34 0 40 15 24 95 39 95 17z m703 -35 c-36 -40 -51 -92
-35 -126 11 -25 9 -26 -77 -11 -42 7 -41 5 -25 68 7 30 9 37 23 74 12 30 15
32 51 27 21 -3 41 -1 44 4 3 5 16 7 29 5 23 -5 23 -5 -10 -41z m-848 8 c9 -10
22 -41 27 -67 5 -26 11 -58 14 -69 3 -15 -2 -23 -16 -27 -11 -3 -22 -2 -25 3
-2 4 -20 15 -40 24 l-34 17 20 39 c15 28 19 48 14 70 -8 36 12 41 40 10z m-65
-17 c0 -23 -67 -103 -86 -103 -10 0 -25 33 -29 65 -1 13 55 40 88 41 15 1 27
0 27 -3z m1050 -8 c19 -22 -5 -82 -40 -100 -76 -39 -139 10 -94 73 28 40 109
57 134 27z m108 -6 c23 -9 23 -9 -12 -45 -35 -36 -54 -89 -42 -119 7 -18 -6
-19 -62 -2 l-42 13 30 22 c39 30 63 77 58 118 -4 31 -2 33 22 27 14 -3 35 -10
48 -14z m-1282 -112 c19 -71 19 -71 -12 -81 -16 -5 -23 0 -34 29 -8 19 -16 35
-19 35 -8 0 -64 90 -60 94 2 2 20 10 39 18 33 14 36 13 52 -7 9 -12 25 -51 34
-88z m1404 48 c26 -31 -13 -98 -65 -111 -65 -16 -105 30 -71 82 28 42 110 60
136 29z m-1597 -57 c-4 -35 -7 -82 -7 -105 0 -73 -22 -62 -67 33 -22 47 -39
87 -37 88 29 16 96 45 105 45 8 1 10 -17 6 -61z m1672 50 c14 -6 25 -15 25
-20 0 -10 -65 -115 -87 -140 -12 -13 -20 -14 -44 -6 l-30 10 35 24 c42 29 66
70 66 114 0 34 0 34 35 18z m-1602 -37 c16 -28 16 -29 -3 -34 -33 -8 -35 -8
-34 8 1 8 2 24 3 35 2 28 14 25 34 -9z m1811 -69 c6 -10 -126 -142 -140 -142
-5 0 -18 8 -29 17 -14 11 -15 14 -4 10 16 -5 39 9 39 24 0 4 -20 12 -45 18
-25 6 -45 16 -45 22 0 5 18 37 40 70 l41 59 69 -35 c38 -19 71 -38 74 -43z
m-2017 27 c2 -8 -14 -27 -34 -42 -34 -26 -38 -26 -45 -10 -12 32 -9 39 25 56
36 18 51 17 54 -4z m458 14 l30 -7 -40 -12 c-54 -17 -75 -17 -75 0 0 22 32 29
85 19z m705 -18 c36 -4 83 -10 105 -15 22 -5 60 -11 84 -15 118 -17 338 -96
488 -176 421 -222 736 -574 908 -1014 43 -109 98 -316 109 -407 3 -27 8 -67
11 -90 8 -62 12 -265 5 -320 l-5 -46 -66 82 c-84 104 -98 132 -155 291 -58
165 -101 247 -186 354 -38 47 -87 122 -109 166 -49 96 -86 138 -182 207 -98
70 -124 95 -155 148 -62 108 -135 171 -242 209 -29 10 -61 26 -72 36 -44 37
-118 74 -174 85 -33 7 -78 19 -100 26 -23 7 -71 18 -107 24 l-65 12 -10 41
c-6 23 -13 79 -17 124 -3 45 -9 92 -15 105 -14 33 -46 68 -63 68 -38 0 -102
-115 -138 -246 -31 -115 -31 -114 -95 -114 -30 0 -69 -6 -87 -14 -32 -13 -35
-12 -149 58 -64 39 -127 80 -138 91 -12 11 -49 62 -82 113 -53 83 -63 93 -86
90 l-27 -3 1 -130 c1 -71 5 -164 9 -205 4 -41 8 -90 10 -108 4 -40 18 -63 85
-129 l51 -52 -29 -63 c-16 -35 -35 -81 -42 -103 -7 -22 -28 -69 -47 -104 -42
-80 -70 -116 -203 -265 -118 -132 -142 -291 -60 -386 26 -30 18 -105 -20 -215
-51 -145 -244 -609 -281 -675 -93 -165 -167 -290 -183 -306 -13 -12 -16 -28
-13 -53 5 -38 65 -192 79 -202 8 -5 40 -98 53 -153 3 -17 14 -41 24 -55 10
-14 21 -36 25 -48 9 -28 90 -78 158 -97 134 -38 286 -37 348 2 52 33 115 127
140 211 16 53 37 87 103 171 46 58 120 139 164 181 85 81 84 80 233 103 54 8
178 53 229 83 25 14 67 46 92 70 l46 43 12 -27 c48 -121 79 -421 81 -803 0
-143 7 -228 25 -316 5 -20 -2 -23 -83 -38 -48 -9 -98 -18 -112 -21 -46 -9
-194 -19 -290 -19 -97 0 -267 11 -278 18 -4 2 -29 7 -57 10 -229 31 -521 150
-745 304 -128 87 -179 130 -280 231 -115 116 -148 156 -241 295 -163 242 -264
500 -304 781 -15 108 -22 410 -11 490 6 46 16 111 21 140 2 11 6 36 9 55 20
126 130 414 209 545 30 50 93 151 100 160 4 6 31 42 59 80 72 98 247 270 348
343 47 34 90 66 95 70 135 102 461 244 640 278 139 27 182 34 250 40 44 3 81
8 83 9 6 5 244 -3 312 -10z m-900 -55 c0 -11 -89 -39 -95 -29 -9 13 3 28 39
50 29 18 32 18 44 2 6 -9 12 -19 12 -23z m-352 -45 c41 -92 49 -102 63 -88 8
9 9 19 1 43 -12 34 1 70 25 70 7 0 13 5 13 10 0 18 30 11 30 -7 1 -10 7 -29
14 -43 16 -28 19 -25 -99 -90 -33 -18 -88 -52 -122 -76 l-62 -43 -75 6 c-42 3
-76 8 -76 10 0 2 10 17 21 33 17 22 20 36 15 64 l-7 36 107 70 c59 39 111 69
116 68 5 -2 22 -30 36 -63z m2192 29 c22 -15 40 -28 40 -29 0 -1 -29 -3 -65
-4 -36 -1 -65 1 -65 5 0 8 40 54 47 54 2 0 21 -12 43 -26z m68 -68 c-2 -3 5
-11 16 -19 17 -13 16 -16 -31 -63 -38 -38 -55 -49 -69 -44 -10 4 -25 5 -31 3
-8 -3 -13 4 -13 18 -1 13 -7 41 -14 62 -10 26 -10 37 -2 38 6 1 35 3 65 4 29
2 58 8 64 14 11 11 24 -1 15 -13z m-984 -115 c5 -49 19 -113 37 -163 40 -109
70 -259 68 -333 -4 -93 -8 -101 -31 -59 -11 21 -16 43 -12 53 12 26 13 41 3
35 -5 -3 -7 -9 -4 -14 3 -5 1 -11 -3 -14 -11 -7 -76 183 -96 279 -15 68 -15
229 -2 285 3 14 -4 5 -16 -20 -30 -62 -30 -200 1 -323 33 -131 119 -337 140
-337 5 0 8 -21 6 -47 -3 -35 -2 -41 4 -23 18 56 31 123 31 166 0 35 3 45 14
41 7 -3 18 -1 23 4 7 7 23 3 47 -11 20 -12 36 -18 36 -13 0 4 4 2 9 -5 4 -7
14 -14 22 -16 8 -1 24 -8 37 -14 12 -7 26 -11 31 -8 5 3 21 -6 37 -19 16 -14
35 -23 42 -20 6 2 12 0 12 -5 0 -6 7 -10 15 -10 9 0 26 -10 38 -23 12 -12 42
-36 67 -52 67 -45 200 -185 221 -232 21 -49 65 -227 73 -298 14 -114 17 -146
31 -345 15 -209 32 -308 85 -472 78 -245 93 -342 95 -628 1 -182 6 -255 20
-325 l18 -89 -44 -39 c-202 -180 -456 -325 -720 -410 l-47 -15 -11 56 c-11 59
-17 164 -26 467 -3 99 -8 196 -10 215 -2 19 -7 60 -10 90 -3 30 -8 66 -10 80
-3 14 -7 39 -10 55 -5 34 -31 157 -40 197 -6 22 5 44 60 127 65 98 97 173 126
301 16 69 13 245 -6 335 -19 95 -53 203 -66 210 -5 4 -5 -5 1 -20 5 -14 12
-37 15 -52 2 -15 9 -51 16 -82 18 -87 19 -100 24 -216 7 -192 -18 -285 -115
-432 -128 -195 -259 -297 -433 -338 -132 -31 -155 -17 -242 150 -20 39 -33 59
-30 45 13 -50 63 -147 95 -183 17 -20 26 -37 20 -37 -30 0 -228 -187 -277
-261 -14 -22 -28 -37 -31 -34 -3 3 0 11 6 17 7 7 12 19 12 27 0 22 -44 -46
-73 -111 -13 -29 -30 -78 -37 -108 -21 -89 -87 -177 -142 -189 -56 -13 -208
-13 -268 0 -66 14 -150 50 -168 71 -12 14 -8 16 30 11 24 -2 53 -9 65 -15 33
-16 135 -2 191 26 28 14 77 51 111 83 33 32 63 54 65 48 2 -5 5 -2 5 8 1 9 5
25 10 35 6 9 21 42 36 72 l25 55 -25 -30 c-14 -16 -28 -40 -31 -52 -3 -13 -11
-20 -17 -16 -6 3 -7 1 -3 -5 4 -7 3 -20 -3 -29 -9 -16 -11 -16 -20 7 -9 23
-10 21 -10 -17 -1 -31 -6 -45 -20 -53 -14 -7 -21 -6 -24 3 -3 7 -6 5 -6 -5 -1
-23 -31 -50 -47 -44 -8 3 -13 0 -11 -6 1 -6 -16 -22 -38 -34 -52 -29 -139 -33
-224 -10 -81 22 -103 36 -97 59 2 9 1 15 -3 13 -6 -4 -38 75 -45 114 -5 24
-24 69 -67 152 -21 43 -39 89 -39 104 0 48 24 19 51 -60 15 -45 29 -72 33 -65
3 8 4 4 2 -8 -2 -13 1 -26 6 -29 10 -6 8 19 -4 66 -3 8 -11 41 -18 74 -8 32
-20 60 -27 63 -7 3 -13 9 -13 13 0 5 39 73 87 152 48 79 100 175 116 213 16
39 48 117 72 175 179 436 185 454 199 545 7 49 12 127 10 173 -3 92 4 112 76
207 21 28 52 74 70 103 24 39 38 52 55 52 13 0 37 12 54 26 17 14 31 24 31 21
0 -3 -14 -36 -31 -74 -27 -59 -75 -180 -250 -627 -22 -54 -38 -101 -36 -103 2
-2 55 124 117 279 178 445 218 534 272 606 28 36 55 76 61 89 10 22 10 22 51
-20 46 -47 75 -70 96 -79 36 -13 190 -136 246 -194 62 -64 128 -174 139 -229
14 -72 17 -153 6 -174 -7 -12 -8 -21 -2 -21 14 0 2 -64 -25 -139 -35 -94 -30
-88 30 34 59 122 74 164 78 212 7 101 50 -96 50 -232 0 -109 -5 -145 -28 -218
-28 -85 -7 -62 50 54 66 135 88 222 88 345 -1 114 -11 172 -67 369 -65 227
-158 413 -262 525 -41 44 -110 182 -83 165 9 -6 15 10 24 70 5 34 97 301 122
355 9 19 24 43 33 53 15 18 16 18 32 -2 10 -12 19 -50 23 -100z m-735 7 c69
-102 154 -209 114 -143 -19 32 -8 30 32 -6 11 -10 57 -37 102 -61 l82 -44 -36
-34 c-19 -19 -46 -53 -59 -76 -16 -27 -34 -44 -52 -49 -26 -6 -94 -52 -100
-67 -5 -10 -32 -10 -32 0 0 4 -20 28 -45 53 -51 50 -61 76 -70 172 -3 37 -8
76 -10 86 -3 17 -8 244 -6 264 2 16 14 3 80 -95z m1529 75 c25 -68 25 -67 -16
-42 -20 12 -38 24 -40 25 -7 5 23 44 34 44 6 0 16 -12 22 -27z m-2363 -59
c-10 -7 -22 -11 -28 -7 -5 3 1 14 14 24 16 12 25 14 28 7 2 -6 -4 -17 -14 -24z
m2642 21 c8 -8 19 -13 24 -9 11 6 48 -34 49 -53 0 -6 -4 -13 -10 -15 -5 -1
-32 -25 -59 -51 l-50 -48 -25 18 c-14 10 -24 23 -22 28 2 6 -5 19 -15 31 -19
20 -19 21 11 52 16 18 30 29 30 27 0 -3 10 3 22 15 26 24 26 24 45 5z m-2687
-86 c0 -14 -7 -19 -25 -19 -29 0 -28 0 -15 35 9 23 13 25 25 15 8 -7 15 -21
15 -31z m2816 -14 c5 -13 41 -31 55 -27 13 3 110 -108 104 -118 -11 -18 -48 9
-42 31 6 22 -3 25 -21 7 -16 -16 -15 -50 3 -74 26 -34 18 -41 -51 -40 -66 1
-67 1 -127 56 -33 30 -63 56 -68 58 -9 4 18 33 81 85 49 41 58 44 66 22z
m-2939 -62 c0 -10 -6 -26 -14 -35 -24 -27 -12 -52 31 -66 43 -14 76 -8 76 13
0 7 -8 27 -17 44 -20 34 -14 46 20 37 22 -5 24 -11 24 -63 -1 -53 -4 -61 -41
-100 -39 -42 -42 -43 -103 -43 -35 0 -63 3 -63 6 0 3 9 17 20 31 20 26 25 49
14 77 -9 23 -22 20 -26 -6 -3 -24 -34 -36 -49 -21 -8 8 105 143 120 143 4 0 8
-8 8 -17z m232 -20 c0 -5 -13 -18 -30 -31 l-29 -24 0 31 c0 28 3 31 30 31 17
0 30 -3 29 -7z m1689 -105 c36 -11 59 -45 68 -105 8 -51 14 -55 14 -9 0 20 -6
52 -14 71 l-14 33 28 -9 c26 -10 80 -76 80 -98 0 -5 4 -12 9 -16 11 -6 -1 41
-18 73 -6 11 -11 24 -11 27 0 16 117 -37 173 -79 16 -11 56 -58 89 -103 65
-89 84 -108 43 -42 -15 22 -35 56 -45 75 l-20 34 50 -25 c93 -47 154 -116 199
-225 13 -30 29 -68 36 -85 25 -55 46 -138 61 -244 4 -25 8 -55 10 -66 2 -11 7
-47 10 -80 3 -33 10 -64 16 -70 6 -6 8 -1 4 15 -3 14 -7 58 -10 98 -9 120 -43
293 -72 366 -9 23 -8 23 91 -47 39 -27 85 -65 104 -85 73 -80 120 -241 114
-397 -5 -173 -5 -396 1 -402 3 -3 6 34 7 83 0 49 3 118 7 154 3 36 6 130 5
210 -1 144 -1 144 17 110 62 -122 74 -398 26 -624 -7 -36 -10 -66 -6 -66 9 0
15 29 39 172 18 103 20 266 6 358 -3 19 -8 51 -11 70 -5 34 -5 34 31 -20 37
-55 85 -152 123 -245 69 -171 75 -190 79 -287 3 -54 10 -98 15 -98 6 0 8 27 6
64 -1 35 0 62 3 60 16 -9 118 -143 134 -173 15 -30 16 -43 6 -105 -7 -40 -23
-114 -36 -166 -14 -52 -27 -104 -30 -114 -16 -64 -101 -253 -170 -376 -28 -50
-116 -181 -138 -205 -19 -20 -19 -19 -13 20 21 144 13 334 -16 389 -6 11 -13
63 -15 116 -4 113 -15 206 -27 217 -3 3 -3 -19 0 -48 9 -115 11 -301 2 -351
-18 -104 -11 -207 19 -304 9 -28 13 -62 10 -76 -8 -29 -115 -150 -127 -143
-27 17 -39 176 -44 610 -2 176 -7 336 -10 355 -4 19 -8 46 -10 60 -3 21 -23
131 -30 165 -26 121 -30 88 -7 -56 29 -181 30 -192 35 -329 2 -69 2 -111 0
-95 -18 121 -29 169 -58 240 -55 133 -86 295 -101 530 -12 190 -25 298 -50
440 -10 59 -37 171 -47 200 -22 60 -78 166 -103 192 -32 35 -24 41 17 12 32
-22 33 -22 14 -1 -28 32 -6 27 39 -10 22 -18 33 -24 25 -14 -22 28 -119 100
-183 136 -50 28 -68 33 -132 34 -69 1 -74 3 -80 24 -5 20 -8 22 -20 12 -12
-10 -15 -8 -15 11 0 22 0 22 -16 3 -8 -10 -13 -14 -10 -8 3 6 -7 11 -26 11
-18 0 -34 5 -36 11 -2 7 -13 12 -23 12 -20 0 -96 46 -91 55 6 12 1 46 -6 41
-5 -3 -7 -18 -4 -34 2 -16 -1 -33 -8 -37 -15 -9 -18 -6 -25 35 -3 19 -12 67
-20 105 -8 39 -15 73 -15 77 0 8 47 1 98 -14z m1230 -20 c2 -20 -1 -24 -19
-23 -27 2 -35 20 -18 41 17 20 33 13 37 -18z m-1636 -3 c-2 -11 -12 -25 -23
-33 -26 -18 -25 -77 4 -133 12 -24 55 -88 95 -141 39 -53 82 -118 95 -145 12
-26 30 -59 39 -73 20 -31 78 -188 106 -290 52 -187 55 -204 55 -335 1 -113 -3
-143 -27 -225 -15 -52 -32 -99 -38 -105 -8 -7 -9 -6 -3 4 4 7 7 70 7 140 -1
105 -6 141 -27 216 -30 101 -64 171 -104 210 -28 25 -28 25 6 -42 43 -86 45
-158 11 -272 -13 -43 -13 -41 -11 62 2 91 -1 117 -20 170 -46 127 -129 221
-320 365 -87 65 -131 113 -150 162 -4 12 -6 11 -6 -3 -1 -10 4 -27 9 -37 8
-15 7 -18 -4 -14 -7 3 -22 21 -32 40 -19 35 -34 44 -34 21 0 -18 -50 -91 -97
-144 -52 -58 -102 -93 -133 -93 -35 0 -85 -50 -97 -98 -9 -33 -89 -152 -113
-167 -14 -8 -9 65 7 103 15 37 79 117 143 182 20 19 45 49 58 67 21 30 88 182
127 287 22 61 110 156 144 156 20 0 22 -4 16 -22 -21 -70 -27 -120 -17 -141
11 -21 11 -21 8 4 -6 39 22 147 51 198 34 59 90 120 128 137 18 8 55 13 90 11
53 -2 60 -4 57 -22z m-1649 -52 c-3 -7 -16 -13 -28 -13 -22 0 -23 2 -14 32 5
18 9 35 9 37 0 2 8 -7 19 -20 10 -13 16 -29 14 -36z m1634 -30 c-3 -10 -5 -4
-5 12 0 17 2 24 5 18 2 -7 2 -21 0 -30z m1643 -49 c-22 -34 -22 -38 -6 -49 12
-9 28 -10 59 -3 56 12 70 33 41 62 -8 9 -14 22 -12 28 3 7 21 -10 41 -37 34
-48 35 -51 18 -65 -25 -21 -30 -41 -18 -70 18 -44 17 -51 -6 -47 -105 19 -108
20 -137 57 -20 25 -29 46 -26 62 3 12 5 42 5 65 1 35 4 42 24 45 36 6 41 -8
17 -48z m-93 11 l-1 -35 -28 31 c-15 16 -28 32 -28 35 0 2 13 4 29 4 26 0 29
-3 28 -35z m-3201 -13 c6 -4 11 -40 12 -80 2 -63 -1 -78 -23 -110 -14 -20 -25
-34 -25 -31 0 4 -25 1 -56 -7 -56 -13 -56 -13 -49 9 4 12 8 40 9 62 1 31 -3
40 -17 43 -14 3 -17 -1 -12 -21 7 -27 -16 -43 -41 -29 -11 6 -5 20 26 67 22
33 40 52 40 43 0 -20 12 -28 58 -39 21 -4 43 -4 54 2 18 10 18 11 -2 43 -11
18 -20 38 -20 45 0 12 29 15 46 3z m96 -41 c-14 -20 -27 -38 -29 -40 -2 -2 -3
14 -3 37 0 39 2 41 29 40 l30 -1 -27 -36z m3392 -73 c-3 -5 -14 -3 -25 2 -19
11 -25 31 -12 44 9 8 43 -35 37 -46z m36 -58 c0 -30 -3 -35 -20 -32 -26 6 -32
19 -15 36 22 22 35 20 35 -4z m-1005 -39 c28 -17 58 -34 68 -37 9 -4 17 -11
17 -16 0 -6 -8 -7 -17 -3 -10 4 -23 8 -30 8 -7 0 -11 5 -10 11 2 12 -60 44
-123 62 l-45 14 45 -4 c29 -2 63 -15 95 -35z m-2715 -23 c0 -10 -4 -18 -9 -18
-5 0 -16 -3 -25 -6 -12 -5 -16 0 -14 22 1 16 3 32 5 36 7 13 43 -16 43 -34z
m2677 -5 c31 -14 133 -123 133 -141 0 -3 -21 14 -47 39 -27 26 -70 62 -97 83
-52 38 -47 47 11 19z m919 -16 c12 -7 7 -57 -5 -57 -4 0 -15 16 -24 35 -16 33
-16 35 1 32 9 -1 22 -6 28 -10z m116 -28 c-1 -8 -15 -25 -29 -38 l-27 -24 21
-17 c16 -12 35 -16 64 -14 50 4 64 20 44 50 -7 11 -10 26 -6 33 5 7 17 -8 34
-41 21 -42 23 -55 13 -63 -22 -17 -33 -49 -29 -82 2 -18 2 -33 -1 -33 -3 0
-31 13 -63 29 -31 16 -60 28 -64 25 -4 -2 -14 12 -24 32 -16 34 -16 39 1 100
16 60 19 64 43 60 16 -2 25 -9 23 -17z m-3609 -44 c-20 -43 -33 -45 -33 -6 0
23 5 31 23 34 12 2 23 5 24 6 2 0 -5 -15 -14 -34z m-75 -54 c20 -91 14 -103
-69 -145 -39 -20 -72 -36 -74 -36 -2 0 -3 19 -3 42 0 32 -5 46 -22 60 l-23 19
23 49 c13 28 27 50 32 50 12 0 10 -8 -7 -34 -13 -20 -13 -25 -1 -35 13 -11 57
-16 97 -13 30 3 32 34 3 59 -31 26 -27 55 8 50 18 -3 24 -15 36 -66z m3835
-61 c6 -22 -3 -26 -20 -9 -12 12 -6 42 7 34 4 -3 10 -14 13 -25z m-4023 -39
c0 -19 -12 -41 -20 -36 -10 6 -1 45 11 45 5 0 9 -4 9 -9z m4048 -51 c-3 -34
-7 -36 -34 -15 -19 15 -19 15 0 30 29 22 37 19 34 -15z m-4053 -48 c6 -15 -10
-32 -30 -32 -6 0 -12 13 -13 29 -2 24 1 28 17 24 11 -3 22 -12 26 -21z m3901
15 c19 -11 20 -15 8 -42 l-12 -30 -16 37 c-23 54 -20 58 20 35z m-3762 -64
c-13 -54 -20 -59 -37 -26 -15 29 -15 31 6 41 34 16 38 14 31 -15z m3861 17
c23 -9 25 -13 14 -26 -7 -9 -23 -20 -36 -25 -29 -11 -29 -34 0 -53 48 -31 111
-19 101 19 -3 13 -1 32 4 41 8 15 12 11 22 -26 6 -25 14 -53 17 -64 3 -11 1
-16 -5 -12 -15 9 -43 -29 -46 -65 -3 -43 -14 -45 -56 -9 -19 16 -41 30 -47 30
-32 0 -64 110 -37 128 6 4 16 22 23 40 8 17 15 32 17 32 1 0 15 -5 29 -10z
m-3935 -87 c27 -40 31 -54 27 -88 -4 -25 -14 -46 -27 -55 -11 -8 -37 -30 -58
-47 -46 -40 -67 -43 -58 -8 5 20 0 33 -24 57 -31 30 -31 31 -19 85 11 46 15
53 24 39 7 -9 10 -27 7 -41 -2 -14 0 -26 4 -26 39 -6 55 -4 84 10 45 22 48 37
8 57 -45 23 -51 36 -25 51 12 7 23 12 24 13 1 0 16 -21 33 -47z m4070 -109 c0
-14 -4 -23 -10 -19 -5 3 -10 15 -10 26 0 10 5 19 10 19 6 0 10 -12 10 -26z
m-2954 -45 c12 -52 23 -115 23 -139 0 -25 0 -25 -16 5 -9 16 -18 61 -21 100
-4 67 2 84 14 34z m-1279 -23 c-4 -9 -11 -16 -18 -16 -6 0 -8 7 -5 16 3 9 6
21 6 27 0 8 3 8 11 0 7 -7 9 -19 6 -27z m4245 -26 c-3 -33 -10 -37 -29 -18
-19 20 -10 51 14 46 12 -3 17 -12 15 -28z m-151 -8 c16 -14 16 -17 2 -38 -8
-13 -19 -21 -25 -18 -5 3 -7 8 -5 11 3 2 1 19 -3 38 -8 36 -4 37 31 7z m-4086
-68 c-15 -16 -35 -18 -35 -5 0 5 -3 16 -6 24 -8 21 28 28 43 9 9 -11 9 -17 -2
-28z m146 -1 c-7 -39 -19 -46 -36 -19 -7 11 -4 21 10 35 29 28 33 26 26 -16z
m4049 -14 c0 -4 -18 -14 -40 -20 -55 -17 -53 -42 7 -73 54 -27 72 -20 78 30 2
25 12 41 19 33 8 -9 17 -179 9 -179 -4 0 -14 4 -22 9 -12 8 -13 14 -3 35 10
23 9 26 -9 26 -21 0 -55 -62 -44 -80 14 -23 -8 -29 -33 -10 -73 53 -73 54 -78
113 -4 53 -2 60 32 106 36 48 38 49 61 34 12 -8 23 -19 23 -24z m-4083 -87
c20 -20 22 -29 16 -83 -5 -53 -10 -65 -45 -100 -21 -21 -42 -39 -47 -39 -4 0
-12 17 -17 37 -6 24 -18 42 -33 50 -30 15 -51 5 -27 -13 12 -8 16 -19 11 -33
-6 -20 -34 -30 -36 -13 0 4 -2 21 -5 37 -2 17 1 58 8 92 9 51 14 60 25 51 8
-6 12 -20 11 -31 -2 -11 6 -25 17 -32 17 -12 26 -10 63 12 46 28 55 57 20 66
-13 4 -26 5 -29 4 -3 -1 -14 4 -23 12 -15 13 -15 15 11 32 26 18 27 17 42 -4
9 -12 25 -32 38 -45z m4173 -171 c0 -5 -6 -20 -14 -35 l-13 -26 -19 21 c-18
20 -18 21 1 35 21 16 45 19 45 5z m-170 -29 c18 -17 18 -18 -6 -57 l-24 -40 0
58 c0 31 2 57 5 57 3 0 14 -8 25 -18z m-4121 -55 c8 -11 7 -18 -7 -30 -17 -15
-19 -15 -35 3 -9 11 -17 25 -17 30 0 15 46 12 59 -3z m134 -56 c-4 -6 -33 20
-33 31 0 5 6 15 13 22 10 12 13 8 17 -18 3 -17 5 -33 3 -35z m4083 44 c19 -15
19 -15 0 -30 -11 -8 -27 -15 -37 -15 -18 0 -33 -26 -23 -41 10 -16 78 -46 97
-41 19 4 20 -3 11 -72 -4 -27 -12 -46 -19 -46 -21 0 -27 31 -10 50 18 20 11
30 -16 23 -21 -6 -53 -58 -44 -72 2 -5 -2 -11 -10 -15 -8 -3 -15 -2 -15 3 0 4
-17 25 -39 46 -33 34 -38 43 -34 74 3 20 16 47 30 61 14 14 37 40 50 58 29 37
32 38 59 17z m-4069 -172 c2 -21 6 -44 8 -50 2 -7 -6 -25 -19 -40 -13 -16 -28
-38 -35 -50 -7 -14 -17 -20 -27 -16 -8 3 -13 8 -10 11 6 6 -22 61 -32 63 -54
10 -66 1 -31 -22 18 -13 19 -16 5 -34 -20 -26 -31 -10 -41 59 -3 28 -9 68 -12
89 -4 31 -2 36 11 31 9 -4 16 -18 16 -34 0 -39 34 -46 77 -17 31 21 51 52 40
63 -2 3 -17 7 -33 10 -56 9 -59 13 -34 39 l23 24 44 -44 c34 -33 46 -53 50
-82z m3936 -117 c15 -23 14 -25 -15 -51 l-30 -27 7 34 c9 44 16 68 20 68 1 0
10 -11 18 -24z m167 -1 c0 -10 -24 -55 -29 -55 -11 0 -32 41 -26 50 6 10 55
14 55 5z m-4066 -81 c9 -33 4 -37 -19 -20 -11 8 -16 20 -12 30 9 24 24 19 31
-10z m3981 -4 c14 -16 15 -21 4 -25 -15 -5 -56 -13 -76 -14 -19 -2 -2 -40 29
-66 32 -27 57 -32 76 -13 10 10 10 6 1 -20 -8 -22 -22 -37 -45 -47 -19 -8 -39
-26 -46 -40 -15 -33 -27 -28 -46 20 -8 22 -24 53 -35 68 -26 38 -16 68 35 102
24 15 47 34 51 42 11 19 31 16 52 -7z m-4112 4 c3 -4 -1 -17 -9 -29 -15 -23
-16 -23 -35 -4 -10 10 -19 24 -19 29 0 11 53 14 63 4z m116 -86 c36 -24 51
-41 58 -68 9 -35 8 -38 -38 -149 l-10 -24 -28 33 c-20 24 -36 34 -61 35 -31 1
-34 5 -50 57 -15 50 -16 56 -1 53 8 -1 18 -13 21 -26 9 -36 44 -36 80 0 17 16
30 39 30 50 0 18 -6 21 -45 21 -46 0 -58 13 -33 38 17 17 23 16 77 -20z m4038
-10 c-3 -8 -6 -5 -6 6 -1 11 2 17 5 13 3 -3 4 -12 1 -19z m-208 -150 c6 -17
10 -32 9 -33 -16 -11 -68 -32 -68 -27 0 16 33 92 40 92 5 0 13 -14 19 -32z
m174 12 c-3 -11 -7 -20 -9 -20 -2 0 -4 9 -4 20 0 11 4 20 9 20 5 0 7 -9 4 -20z
m-4073 -65 c10 -12 10 -19 2 -27 -14 -14 -17 -11 -26 20 -8 25 5 29 24 7z
m193 -30 c19 -39 19 -39 -18 -25 -21 8 -24 13 -16 29 6 10 7 21 4 25 -3 3 -2
6 3 6 6 0 18 -16 27 -35z m3847 24 c0 -6 -5 -20 -11 -31 -9 -17 -13 -18 -20
-7 -16 25 -10 49 11 49 11 0 20 -5 20 -11z m-80 -73 c0 -4 -22 -6 -49 -3 -41
4 -50 2 -54 -12 -4 -18 40 -92 59 -98 13 -4 39 19 47 39 2 7 8 10 13 5 4 -4
-2 -27 -13 -51 -18 -37 -26 -43 -53 -44 -21 0 -39 -9 -54 -26 -12 -14 -25 -26
-28 -26 -6 0 -12 23 -22 82 -2 14 -10 36 -16 48 -8 15 -8 30 0 55 9 29 19 36
63 51 29 9 56 21 62 25 9 9 44 -26 45 -45z m-449 -89 c0 -34 0 -91 -1 -127 -1
-56 -3 -61 -11 -35 -9 29 -15 174 -10 245 l3 35 8 -28 c5 -16 10 -57 11 -90z
m-3450 91 c-1 -5 -1 -17 -1 -28 0 -18 -2 -19 -22 -8 -33 19 -40 32 -20 40 20
8 43 6 43 -4z m202 -99 c27 -43 33 -69 20 -83 -8 -8 -9 -12 -12 -61 -2 -50
-15 -61 -41 -37 -27 25 -69 37 -84 22 -7 -7 -20 7 -43 47 -18 32 -33 63 -33
70 0 18 39 3 45 -18 16 -51 95 9 95 72 0 19 -4 20 -50 14 -53 -7 -60 -1 -38
34 11 18 13 18 62 1 40 -14 57 -27 79 -61z m3481 -90 c4 -18 1 -31 -9 -39 -8
-7 -15 -9 -15 -6 0 4 -9 2 -20 -4 -25 -14 -25 -10 3 44 23 47 31 48 41 5z
m175 -21 c-9 -16 -14 -19 -17 -9 -2 7 2 17 9 22 20 13 21 11 8 -13z m-3546
-70 c27 -37 27 -37 5 -36 -35 2 -45 15 -40 48 2 17 5 30 6 28 1 -2 14 -20 29
-40z m3495 10 c9 -9 8 -16 -5 -30 -22 -24 -33 -23 -33 5 0 36 16 47 38 25z
m-3690 -21 c6 -7 7 -18 3 -25 -6 -10 -12 -6 -25 12 -13 21 -14 26 -2 26 7 0
18 -6 24 -13z m3593 -13 c4 -10 8 -22 8 -26 1 -13 -32 -9 -60 6 -35 18 -49 8
-44 -31 8 -67 45 -96 80 -63 12 11 27 20 33 20 12 0 -75 -126 -103 -150 -13
-11 -15 -9 -15 13 0 19 6 26 23 29 33 5 27 23 -10 26 -22 2 -38 -3 -52 -17
-26 -26 -41 -27 -42 -3 -3 39 -9 88 -14 100 -5 14 53 102 69 103 6 0 26 2 43
3 18 1 35 5 39 8 11 12 38 1 45 -18z m-3515 -72 c1 -18 -3 -21 -20 -16 -33 10
-43 23 -26 34 23 15 45 7 46 -18z m150 4 c31 -3 42 -11 75 -54 21 -28 37 -57
34 -64 -2 -7 -7 -31 -10 -52 -3 -22 -7 -42 -10 -44 -2 -3 -18 7 -35 22 -36 29
-43 31 -73 14 l-22 -12 25 -6 c26 -6 39 -35 22 -52 -6 -6 -29 14 -66 57 -31
36 -56 70 -56 75 0 14 32 4 46 -14 25 -35 72 12 79 79 3 24 -17 35 -39 23 -26
-15 -66 -21 -66 -11 0 4 3 18 6 30 5 18 11 22 30 17 13 -3 40 -7 60 -8z m3111
-130 c3 -20 -2 -24 -29 -29 -18 -2 -35 -3 -37 -1 -3 2 8 18 24 34 31 32 37 32
42 -4z m-2857 -112 c0 -3 -81 14 -86 19 -3 2 -2 16 2 31 l6 26 39 -37 c21 -21
39 -38 39 -39z m2979 32 c10 -12 8 -17 -8 -25 -30 -16 -39 -13 -36 12 3 28 2
27 19 27 7 0 19 -6 25 -14z m-107 -21 c3 -14 1 -28 -4 -31 -10 -7 -58 14 -69
30 -4 5 -12 -1 -18 -13 -9 -15 -9 -32 -1 -61 13 -49 41 -67 66 -43 9 10 24 18
33 19 9 2 -15 -26 -54 -61 -71 -66 -106 -84 -85 -45 6 11 20 20 31 20 12 0 19
5 17 13 -7 18 -65 20 -90 3 -12 -9 -25 -16 -29 -16 -3 0 -4 33 -2 73 7 110 22
121 184 136 10 0 19 -9 21 -24z m-3040 -60 c-5 -29 -3 -28 -37 -15 -23 9 -25
13 -15 25 7 8 23 15 35 15 18 0 21 -4 17 -25z m151 1 c104 -6 125 -24 131
-114 3 -48 1 -62 -10 -62 -8 0 -14 4 -14 9 0 11 -39 24 -64 21 -11 -1 -26 -8
-33 -16 -12 -12 -10 -14 16 -14 27 0 31 -4 31 -26 0 -31 -7 -29 -63 15 l-42
34 27 28 c48 47 33 129 -17 93 -24 -18 -55 -18 -55 0 0 23 11 46 20 41 4 -3
37 -7 73 -9z m2611 -84 c-6 -29 -9 -31 -44 -29 -21 1 -37 3 -35 5 11 12 80 60
82 58 2 -2 0 -17 -3 -34z m-2368 -53 c19 -11 34 -22 34 -23 0 -2 -15 -3 -34
-4 -28 -1 -35 3 -39 23 -5 30 -3 30 39 4z m2342 -29 c18 0 22 -6 22 -30 0 -32
-26 -43 -36 -15 -4 8 -10 12 -15 9 -5 -3 -9 0 -9 5 0 15 -37 14 -42 -1 -8 -24
0 -88 12 -103 16 -19 29 -19 52 2 10 9 18 12 18 6 0 -6 -18 -22 -39 -36 -38
-25 -41 -26 -71 -10 -26 12 -37 13 -57 4 -39 -18 -45 -1 -23 57 11 29 20 60
20 69 0 9 8 25 17 36 15 16 27 18 73 13 30 -3 65 -5 78 -6z m137 -40 c-3 -4
-16 -10 -30 -12 -22 -5 -25 -2 -23 16 2 11 7 24 13 28 11 8 47 -21 40 -32z
m-2342 -18 c9 -9 18 -29 20 -42 3 -14 12 -43 21 -64 22 -52 20 -58 -11 -49
-40 10 -66 6 -79 -12 -10 -13 -17 -12 -58 11 -25 14 -46 31 -46 36 0 6 8 4 18
-5 25 -23 37 -21 53 6 13 20 14 33 10 90 -1 23 -23 22 -51 -3 -38 -33 -65 -24
-50 16 7 17 17 22 50 22 23 1 45 3 48 6 12 13 60 5 75 -12z m-236 -32 c2 -17
-1 -20 -23 -16 -37 7 -40 13 -19 36 20 23 37 15 42 -20z m2180 -16 c-9 -29
-15 -34 -31 -30 -12 3 -27 6 -33 6 -25 0 -12 20 25 39 51 26 52 26 39 -15z
m-1779 -61 c-29 -12 -34 -12 -45 3 -7 10 -13 25 -13 35 0 15 4 15 45 -4 l45
-21 -32 -13z m1672 -3 c22 -11 40 -18 40 -15 0 3 8 1 19 -4 13 -7 17 -18 14
-36 -7 -33 -21 -32 -53 7 -23 27 -30 30 -43 20 -18 -15 -29 -66 -21 -99 6 -22
10 -24 45 -18 72 12 41 -11 -66 -50 -57 -20 -62 -21 -58 -4 3 9 16 20 29 23
37 10 32 49 -11 81 -49 38 -71 31 -67 -22 3 -47 -11 -62 -37 -39 -16 15 -16
19 8 70 24 50 31 57 86 79 75 31 68 31 115 7z m-1497 -60 c6 -14 24 -44 40
-68 16 -24 26 -46 23 -50 -4 -3 -22 -5 -40 -4 -24 2 -40 -4 -57 -22 -14 -14
-28 -21 -34 -16 -5 4 -30 13 -54 20 -49 13 -47 24 6 25 47 0 58 19 44 72 -12
45 -39 64 -54 37 -5 -9 -18 -25 -30 -37 l-20 -20 -9 23 c-11 29 -4 50 17 50 8
0 31 9 50 19 30 16 42 17 72 8 22 -7 39 -20 46 -37z m1743 15 c-21 -16 -32
-13 -21 4 3 6 14 11 23 11 15 -1 15 -2 -2 -15z m-506 -39 c-8 -22 -14 -26 -33
-20 -49 15 -52 22 -14 29 20 4 40 12 43 17 12 18 14 0 4 -26z m433 14 c3 -13
-1 -21 -14 -25 -28 -9 -41 2 -29 26 14 25 36 24 43 -1z m-2013 -20 c10 -19 10
-20 -9 -8 -22 13 -28 28 -11 28 5 0 14 -9 20 -20z m493 4 c32 -7 33 -12 10
-30 -25 -19 -29 -18 -54 17 -20 29 -21 31 -3 26 10 -3 31 -9 47 -13z m-396
-24 c15 -23 2 -34 -27 -25 -20 6 -26 25 -13 38 12 12 28 7 40 -13z m573 -14
c38 -6 60 -17 60 -30 1 -6 14 -26 30 -45 16 -19 28 -37 25 -39 -2 -3 -21 -6
-42 -8 -37 -3 -63 -24 -63 -51 0 -7 5 -13 10 -13 6 0 10 5 10 11 0 18 45 5 48
-14 3 -14 -1 -17 -20 -13 -13 2 -55 10 -95 17 -52 9 -70 15 -66 25 3 8 18 13
37 11 28 -2 31 1 34 28 3 34 -30 95 -51 95 -8 0 -21 -18 -30 -40 -11 -28 -20
-38 -30 -34 -12 4 -32 45 -24 49 1 1 24 16 51 33 30 19 57 30 70 27 12 -3 32
-7 46 -9z m776 -11 c21 -14 48 -28 61 -31 25 -7 29 -39 6 -39 -22 0 -53 -34
-53 -59 0 -20 -7 -25 -44 -35 -25 -6 -52 -11 -60 -11 -28 0 -17 15 17 25 44
14 42 55 -6 98 -37 32 -55 22 -59 -32 -3 -42 -17 -49 -38 -21 -18 23 -17 25
26 74 53 62 92 70 150 31z m-196 -4 c0 -6 -10 -17 -22 -25 -20 -14 -23 -14
-38 2 -18 18 -16 19 53 31 4 0 7 -3 7 -8z m-361 -10 c2 -1 -7 -9 -20 -20 -22
-17 -24 -17 -36 -2 -7 9 -13 19 -13 23 0 5 46 4 69 -1z m227 -43 c24 -23 44
-44 44 -48 0 -4 -18 -12 -40 -19 -29 -9 -41 -18 -46 -37 -8 -31 4 -45 17 -21
12 21 32 22 48 3 14 -17 4 -22 -64 -26 -100 -6 -118 -5 -122 8 -3 8 6 12 26
12 42 0 54 26 33 70 -9 19 -21 38 -27 42 -17 13 -45 9 -45 -7 0 -8 -5 -26 -12
-40 -11 -24 -12 -24 -30 -9 -19 18 -25 44 -9 44 5 0 26 16 47 35 32 30 45 35
87 35 43 0 53 -5 93 -42z m492 -49 c-23 -21 -38 -17 -38 10 0 26 9 31 36 19
l24 -11 -22 -18z m-1141 -15 c-3 -3 -17 -7 -31 -8 -19 -3 -26 1 -24 13 2 9 10
21 18 28 11 9 17 7 28 -9 8 -10 12 -22 9 -24z m-106 19 c12 -15 12 -16 -4 -10
-10 4 -23 7 -28 7 -5 0 -9 5 -9 10 0 16 26 12 41 -7z m1162 -29 c-1 -5 -11
-10 -23 -12 -14 -2 -18 1 -14 11 6 16 40 17 37 1z m-672 -46 c-3 -4 -19 -10
-35 -14 -26 -6 -28 -5 -21 17 4 13 12 27 18 30 11 8 47 -23 38 -33z m381 22
c19 -17 19 -20 5 -20 -9 0 -17 -4 -17 -10 0 -12 -27 -14 -33 -2 -5 8 10 52 18
52 3 0 15 -9 27 -20z"/>
<path d="M2700 3930 c-1 -8 -3 -27 -5 -42 -2 -15 1 -30 6 -33 5 -4 9 2 10 12
1 10 5 -1 11 -24 5 -24 13 -43 19 -43 11 0 12 14 2 24 -4 4 -9 18 -11 33 -4
34 -30 92 -32 73z"/>
<path d="M2740 3780 c0 -5 5 -10 11 -10 5 0 7 5 4 10 -3 6 -8 10 -11 10 -2 0
-4 -4 -4 -10z"/>
<path d="M2866 3615 c80 -25 264 -137 382 -233 23 -19 42 -30 41 -26 -1 18
-202 159 -296 209 -29 15 -53 31 -53 36 0 5 -9 9 -19 9 -11 0 -23 5 -26 10 -3
6 -21 10 -38 9 -32 -1 -32 -1 9 -14z"/>
<path d="M3335 3310 c21 -22 41 -40 44 -40 3 0 -13 18 -34 40 -21 22 -41 40
-44 40 -3 0 13 -18 34 -40z"/>
<path d="M2199 3303 c-1 -34 -10 -72 -24 -114 -19 -54 -11 -63 11 -13 17 39
32 144 20 144 -3 0 -6 -8 -7 -17z"/>
<path d="M1850 3159 c-7 -11 -10 -23 -7 -25 2 -2 9 7 15 21 14 30 7 33 -8 4z"/>
<path d="M1826 3105 c-3 -9 -6 -22 -5 -28 0 -7 5 -1 10 12 5 13 8 26 5 28 -2
2 -6 -3 -10 -12z"/>
<path d="M2182 3053 c-2 -42 2 -56 20 -73 23 -21 50 -24 83 -10 14 7 10 8 -17
4 -47 -8 -71 18 -79 84 l-6 47 -1 -52z"/>
<path d="M2024 3047 c-44 -39 -70 -191 -37 -219 10 -8 12 0 11 38 -2 58 7 106
27 144 16 30 47 46 66 34 7 -4 9 -3 6 3 -14 22 -48 21 -73 0z"/>
<path d="M2465 3035 c-19 -24 -29 -54 -36 -102 -11 -84 -16 -110 -25 -125 -4
-6 -3 -8 4 -5 12 8 44 96 37 106 -8 14 23 122 40 141 10 11 15 20 12 20 -3 0
-18 -16 -32 -35z"/>
<path d="M1816 3047 c3 -10 9 -15 12 -12 3 3 0 11 -7 18 -10 9 -11 8 -5 -6z"/>
<path d="M2946 3007 c3 -10 9 -15 12 -12 3 3 0 11 -7 18 -10 9 -11 8 -5 -6z"/>
<path d="M2959 2967 c6 -8 7 -18 3 -22 -4 -5 -1 -5 6 -1 10 6 10 11 1 22 -6 8
-14 14 -16 14 -3 0 0 -6 6 -13z"/>
<path d="M2974 2929 c-15 -26 144 -356 244 -507 70 -105 92 -134 136 -184 37
-43 23 -17 -29 52 -75 100 -153 223 -214 340 -76 146 -133 280 -127 297 6 16
0 17 -10 2z"/>
<path d="M2039 2823 c-9 -2 -20 -14 -26 -26 -10 -25 -6 -60 7 -52 12 8 6 -15
-14 -55 l-19 -35 22 20 c31 27 42 6 38 -68 -4 -78 15 -91 63 -42 19 19 39 35
44 35 6 0 4 -5 -4 -10 -8 -5 -10 -10 -4 -10 6 0 22 9 35 21 13 11 36 27 52 35
15 8 27 19 27 24 0 5 18 13 41 16 27 5 37 10 30 17 -7 7 -3 20 12 41 12 17 20
37 19 44 -2 8 1 11 7 7 6 -3 11 -1 11 5 0 12 -97 4 -135 -11 -19 -7 -19 -8 2
-8 12 -1 25 -5 28 -11 10 -16 -108 -12 -146 5 -34 14 -34 14 29 11 35 -2 61
-1 57 2 -6 6 -17 9 -73 16 -18 3 -42 12 -54 21 -13 8 -25 14 -28 14 -3 -1 -12
-3 -21 -6z m41 -24 c13 -9 13 -10 0 -8 -30 3 -41 -1 -34 -13 4 -7 3 -8 -4 -4
-13 8 -4 36 12 36 6 0 18 -5 26 -11z m250 -36 c-1 -14 -27 -43 -33 -37 -8 9
11 44 23 44 6 0 10 -3 10 -7z m-174 -73 c8 0 14 -5 14 -11 0 -5 -4 -8 -10 -4
-5 3 -25 6 -45 7 -19 1 -35 6 -35 11 0 5 14 7 31 3 17 -3 38 -6 45 -6z m94 4
c0 -4 -16 -22 -35 -41 -29 -28 -42 -34 -72 -31 -20 2 -38 8 -40 13 -2 6 12 9
34 7 39 -3 80 15 56 25 -21 8 -15 26 7 20 11 -3 18 -1 14 4 -3 5 4 9 15 9 12
0 21 -3 21 -6z m-130 -104 c0 -5 -4 -10 -10 -10 -5 0 -10 5 -10 10 0 6 5 10
10 10 6 0 10 -4 10 -10z m-31 -14 c9 -10 8 -15 -2 -19 -8 -3 -13 3 -14 14 -2
23 1 24 16 5z"/>
<path d="M2304 2468 l-19 -23 23 19 c21 18 27 26 19 26 -2 0 -12 -10 -23 -22z"/>
<path d="M2180 2374 c-99 -79 -115 -93 -90 -79 39 22 204 156 190 154 -3 0
-48 -34 -100 -75z"/>
<path d="M1606 2393 c-6 -14 -5 -15 5 -6 7 7 10 15 7 18 -3 3 -9 -2 -12 -12z"/>
<path d="M2275 2300 c-55 -56 -106 -84 -141 -77 -13 2 -21 0 -18 -4 10 -16 66
-9 100 11 28 18 124 120 112 120 -2 0 -26 -22 -53 -50z"/>
<path d="M1546 2233 c-6 -14 -5 -15 5 -6 7 7 10 15 7 18 -3 3 -9 -2 -12 -12z"/>
<path d="M2103 2159 c19 -30 39 -63 46 -74 11 -18 11 -18 5 5 -9 34 -57 113
-72 118 -7 2 2 -20 21 -49z"/>
<path d="M3395 2180 c10 -11 20 -20 23 -20 3 0 -3 9 -13 20 -10 11 -20 20 -23
20 -3 0 3 -9 13 -20z"/>
<path d="M1860 2173 c-3 -27 -5 -33 -14 -55 -4 -9 -9 -22 -10 -30 -1 -7 -17
-58 -34 -112 -18 -55 -30 -102 -27 -104 3 -3 6 -3 8 -1 6 8 57 175 57 187 0 6
4 12 8 12 5 0 8 10 7 23 -1 12 2 27 7 34 5 6 8 24 5 40 -3 24 -4 25 -7 6z"/>
<path d="M2226 2118 l-18 -33 21 25 c18 22 26 40 18 40 -1 0 -11 -15 -21 -32z"/>
<path d="M3420 2146 c0 -2 8 -10 18 -17 15 -13 16 -12 3 4 -13 16 -21 21 -21
13z"/>
<path d="M1491 2054 c0 -11 3 -14 6 -6 3 7 2 16 -1 19 -3 4 -6 -2 -5 -13z"/>
<path d="M3092 1990 c0 -14 2 -19 5 -12 2 6 2 18 0 25 -3 6 -5 1 -5 -13z"/>
<path d="M3091 1944 c0 -11 3 -14 6 -6 3 7 2 16 -1 19 -3 4 -6 -2 -5 -13z"/>
<path d="M2083 1935 c-3 -9 -3 -18 -1 -21 3 -3 8 4 11 16 6 23 -1 27 -10 5z"/>
<path d="M3083 1862 l-1 -57 8 50 c4 28 5 53 1 57 -3 4 -7 -19 -8 -50z"/>
<path d="M2024 1763 c-59 -164 -58 -163 -43 -139 15 24 101 268 96 273 -2 2
-26 -58 -53 -134z"/>
<path d="M1425 1849 c-4 -6 -5 -12 -2 -15 2 -3 7 2 10 11 7 17 1 20 -8 4z"/>
<path d="M1747 1803 c-9 -32 -26 -92 -38 -133 -13 -41 -23 -79 -25 -85 -6 -30
-77 -201 -92 -223 -23 -33 -34 -62 -24 -62 6 0 65 96 67 110 1 3 9 23 19 45
10 22 19 47 21 55 2 8 4 17 5 20 1 3 2 8 1 13 0 4 4 7 9 7 6 0 10 11 10 24 0
14 5 28 11 31 6 4 8 13 5 20 -2 7 -2 16 2 19 3 4 7 13 9 21 6 29 11 50 13 50
1 0 3 11 5 25 2 14 10 45 19 69 19 50 19 51 8 51 -5 0 -16 -26 -25 -57z"/>
<path d="M3082 1663 c1 -78 5 -139 8 -137 6 7 0 267 -6 274 -3 2 -4 -59 -2
-137z"/>
<path d="M2161 1657 l-25 -32 32 29 c33 31 37 36 25 35 -5 0 -19 -14 -32 -32z"/>
<path d="M1354 1597 c-31 -24 -91 -149 -63 -131 5 3 9 -7 9 -21 0 -39 37 -106
55 -99 8 4 15 1 15 -4 0 -6 7 -18 16 -26 30 -31 32 -15 3 37 -34 61 -37 112
-9 147 11 14 20 21 20 16 0 -5 7 -3 15 4 8 7 15 9 15 5 0 -4 14 9 30 30 23 29
27 41 19 51 -15 19 -97 13 -125 -9z m61 -3 c6 0 16 -2 24 -2 11 -2 10 -6 -4
-22 -10 -11 -24 -20 -31 -20 -7 0 -25 -11 -41 -26 -23 -21 -27 -33 -26 -72 1
-26 4 -60 7 -77 6 -29 6 -29 -10 5 -29 60 -24 111 14 154 18 20 30 41 27 47
-4 5 -1 9 5 9 6 0 8 5 4 12 -5 7 -3 8 7 2 8 -5 19 -9 24 -10z"/>
<path d="M2177 1588 c-30 -41 -40 -58 -33 -58 3 0 19 20 36 45 35 52 33 61 -3
13z"/>
<path d="M1522 1585 c7 -16 16 -33 21 -36 4 -3 9 -16 10 -27 1 -21 17 -32 17
-12 0 16 -24 64 -43 85 -18 20 -18 19 -5 -10z"/>
<path d="M1222 1580 c0 -8 4 -26 8 -40 6 -20 8 -21 8 -5 0 11 -3 29 -8 40 -5
12 -8 14 -8 5z"/>
<path d="M1470 1551 c0 -5 8 -15 18 -20 9 -6 13 -11 8 -11 -6 0 -2 -6 8 -13
12 -9 20 -31 24 -65 4 -50 3 -53 -39 -95 -24 -24 -53 -49 -64 -55 -14 -8 -16
-11 -5 -12 9 0 33 12 53 26 50 34 58 25 10 -9 -21 -15 -33 -27 -27 -27 6 0 28
16 50 36 21 19 33 33 27 29 -17 -8 -16 -5 3 35 23 46 20 98 -8 138 -20 29 -58
57 -58 43z"/>
<path d="M1447 1498 c-7 -19 12 -50 26 -42 8 5 7 2 -1 -7 -11 -12 -16 -10 -31
10 -14 18 -20 21 -26 11 -6 -9 -4 -11 5 -5 9 5 10 2 6 -12 -6 -20 32 -63 55
-63 6 0 1 9 -12 20 -13 10 -19 19 -13 20 5 0 16 -6 24 -12 11 -10 11 -9 0 6
-14 18 -13 19 3 13 16 -6 15 -3 -3 33 -22 43 -26 47 -33 28z"/>
<path d="M3088 1310 c1 -110 6 -200 10 -200 4 0 6 90 4 200 -1 110 -6 200 -10
200 -4 0 -6 -90 -4 -200z"/>
<path d="M1400 1430 c10 -34 26 -53 55 -63 12 -5 7 3 -12 18 -18 15 -33 35
-33 45 0 10 -4 21 -9 25 -6 3 -6 -6 -1 -25z"/>
<path d="M1875 1450 c-3 -6 1 -7 9 -4 18 7 21 14 7 14 -6 0 -13 -4 -16 -10z"/>
<path d="M1950 1445 c0 -8 4 -15 10 -15 5 0 7 7 4 15 -4 8 -8 15 -10 15 -2 0
-4 -7 -4 -15z"/>
<path d="M1954 1403 c-3 -10 -10 -29 -16 -43 -7 -18 -6 -22 1 -14 12 11 33 74
25 74 -3 0 -7 -8 -10 -17z"/>
<path d="M1390 1383 c0 -7 10 -22 23 -35 12 -13 17 -17 11 -8 -6 8 -16 24 -22
35 -6 11 -12 15 -12 8z"/>
<path d="M1301 1304 c0 -11 3 -14 6 -6 3 7 2 16 -1 19 -3 4 -6 -2 -5 -13z"/>
<path d="M1305 1280 c-16 -7 -17 -9 -3 -9 9 -1 20 4 23 9 7 11 7 11 -20 0z"/>
<path d="M1310 1239 c0 -5 9 -9 20 -9 11 0 20 2 20 4 0 2 -9 6 -20 9 -11 3
-20 1 -20 -4z"/>
<path d="M1310 1210 c-14 -9 -7 -14 13 -11 4 0 7 -3 7 -9 0 -5 7 -7 15 -4 8 4
15 10 15 16 0 5 -5 6 -11 2 -6 -3 -14 -2 -18 4 -4 7 -12 8 -21 2z"/>
<path d="M1370 1150 c-23 -7 -23 -8 -3 -9 12 -1 25 4 28 9 3 6 5 10 3 9 -2 -1
-14 -5 -28 -9z"/>
<path d="M1408 1113 c7 -3 16 -2 19 1 4 3 -2 6 -13 5 -11 0 -14 -3 -6 -6z"/>
<path d="M3090 1075 c0 -14 4 -25 9 -25 4 0 6 11 3 25 -2 14 -6 25 -8 25 -2 0
-4 -11 -4 -25z"/>
<path d="M3090 1011 c0 -6 4 -13 10 -16 6 -3 7 1 4 9 -7 18 -14 21 -14 7z"/>
<path d="M3735 2850 c4 -74 8 -154 9 -177 1 -23 4 -44 7 -47 3 -3 4 25 3 62
-2 104 -15 286 -21 292 -3 3 -2 -56 2 -130z"/>
<path d="M4071 2444 c0 -11 3 -14 6 -6 3 7 2 16 -1 19 -3 4 -6 -2 -5 -13z"/>
<path d="M3974 2260 c0 -107 2 -151 3 -97 2 53 2 141 0 195 -1 53 -3 9 -3 -98z"/>
<path d="M3906 2394 c-4 -14 -5 -28 -3 -31 3 -2 8 8 11 23 4 14 5 28 3 31 -3
2 -8 -8 -11 -23z"/>
<path d="M4072 2395 c0 -16 2 -22 5 -12 2 9 2 23 0 30 -3 6 -5 -1 -5 -18z"/>
<path d="M4195 2298 c1 -98 -10 -167 -44 -265 -16 -46 -27 -83 -25 -83 9 0 47
98 63 163 19 74 28 257 13 257 -4 0 -8 -33 -7 -72z"/>
<path d="M4066 2338 c-17 -84 -27 -151 -23 -154 3 -3 10 26 16 63 7 37 14 78
17 91 2 12 2 22 -1 22 -2 0 -7 -10 -9 -22z"/>
<path d="M4248 2047 c-3 -19 -2 -25 4 -19 6 6 8 18 6 28 -3 14 -5 12 -10 -9z"/>
<path d="M3833 1850 c0 -25 2 -35 4 -22 2 12 2 32 0 45 -2 12 -4 2 -4 -23z"/>
<path d="M3829 1798 c-4 -14 -7 -47 -12 -123 -4 -69 -4 -77 3 -35 10 67 18
160 13 160 -2 0 -3 -1 -4 -2z"/>
<path d="M4136 1695 c-9 -26 -7 -32 5 -12 6 10 9 21 6 23 -2 3 -7 -2 -11 -11z"/>
<path d="M2362 3602 c19 -62 72 -180 87 -192 3 -3 18 -23 33 -45 35 -50 92
-115 103 -115 4 0 -11 20 -34 45 -80 87 -165 240 -186 334 -4 17 -10 33 -15
36 -4 3 1 -25 12 -63z"/>
<path d="M2266 3600 c8 -61 29 -123 68 -196 35 -67 117 -183 129 -183 4 -1
-11 24 -34 55 -63 85 -127 212 -149 295 -14 53 -18 61 -14 29z"/>
<path d="M2610 3215 c13 -14 26 -25 28 -25 3 0 -5 11 -18 25 -13 14 -26 25
-28 25 -3 0 5 -11 18 -25z"/>
<path d="M2470 3206 c0 -2 8 -10 18 -17 15 -13 16 -12 3 4 -13 16 -21 21 -21
13z"/>
<path d="M2560 3105 c13 -14 26 -25 28 -25 3 0 -5 11 -18 25 -13 14 -26 25
-28 25 -3 0 5 -11 18 -25z"/>
</g>
</svg>
